<svg fill="none" height="720" viewBox="0 0 720 720" width="720" xmlns="http://www.w3.org/2000/svg"><g fill="#000"><path d="m551.572 142.961c0 20.414-16.547 36.961-36.961 36.961-20.41 0-36.957-16.547-36.957-36.961 0-20.41 16.547-36.961 36.957-36.961 20.414 0 36.961 16.551 36.961 36.961"/><path d="m553.812 346.801h-49.281c-12.879 0-23.52-8.961-25.199-21.84l-14.559-94.641c-1.121-6.16-6.718-10.641-12.879-9.519-6.16 1.121-10.078 6.718-9.519 12.879l14.559 94.64c3.922 23.52 23.52 40.88 47.602 40.88h49.281c6.16 0 11.199-5.04 11.199-11.199-.004-6.161-5.043-11.199-11.203-11.199z"/><path d="m626.052 420.721-19.602-107.52c-1.679-7.84-8.398-14-16.801-14h-34.16l-5.601-78.398c-1.121-17.359-15.121-30.801-32.48-30.801h-5.039c-10.078 0-19.039 4.481-25.762 11.762-6.161 7.281-9.52 17.359-7.84 27.441l14 89.602c1.121 8.398 8.398 14.559 16.801 14.559h66.641l16.801 94.078c1.68 8.398 8.398 14 16.801 14h2.801c8.961-2.805 14.562-11.766 13.441-20.723z"/><path d="m377.412 142.961c0 20.414-16.547 36.961-36.961 36.961-20.41 0-36.957-16.547-36.957-36.961 0-20.41 16.547-36.961 36.957-36.961 20.414 0 36.961 16.551 36.961 36.961"/><path d="m379.652 346.801h-49.281c-12.879 0-23.52-8.961-25.199-21.84l-14.559-94.641c-1.121-6.16-6.718-10.641-12.879-9.519-6.16 1.121-10.078 6.718-9.519 12.879l14.559 94.64c3.922 23.52 23.52 40.88 47.602 40.88h49.281c6.16 0 11.199-5.04 11.199-11.199-.004-6.161-5.043-11.199-11.203-11.199z"/><path d="m432.292 313.201c-1.679-7.84-8.398-14-16.801-14h-34.16l-5.601-78.398c-1.121-17.359-15.121-30.801-32.48-30.801h-5.039c-10.078 0-19.039 4.481-25.762 11.762-6.161 7.281-9.52 17.359-7.84 27.441l14 89.602c1.121 8.398 8.398 14.559 16.801 14.559h66.641l16.801 94.078c1.68 8.398 8.398 14 16.801 14h2.801c8.961-1.68 15.121-10.641 13.441-19.602z"/><path d="m203.812 142.961c0 20.414-16.551 36.961-36.961 36.961-20.414 0-36.961-16.547-36.961-36.961 0-20.41 16.547-36.961 36.961-36.961 20.41 0 36.961 16.551 36.961 36.961"/><path d="m206.052 346.801h-49.281c-12.879 0-23.52-8.961-25.199-21.84l-15.121-94.641c-1.121-6.16-6.718-10.641-12.879-9.519-6.1599 1.121-10.0777 6.718-9.5192 12.879l14.5592 94.64c3.922 23.52 23.52 40.88 47.602 40.88h49.281c6.16 0 11.199-5.04 11.199-11.199.558-6.161-4.481-11.199-10.641-11.199z"/><path d="m258.692 313.201c-1.679-7.84-8.398-14-16.801-14h-34.16l-5.601-78.398c-1.121-17.359-15.121-30.801-32.48-30.801h-5.039c-10.078 0-19.039 4.481-25.762 11.762-6.161 7.281-9.52 17.359-7.84 27.441l14 89.602c1.121 8.398 8.398 14.559 16.801 14.559h66.641l16.801 94.078c1.68 8.398 8.398 14 16.801 14h2.801c8.961-1.68 15.121-10.641 13.441-19.602z"/><path d="m81.6337 570.18v-35.51c0-10.899 2.948-18.894 8.844-23.986 5.9854-5.092 13.7573-7.638 23.3163-7.638 9.826 0 17.866 2.367 24.12 7.102 6.342 4.735 9.514 11.256 9.514 19.564 0 3.841-.804 6.477-2.412 7.906-1.608 1.34-4.288 2.01-8.04 2.01-6.879 0-10.363-2.099-10.452-6.298 0-1.251-.045-2.278-.134-3.082-.09-.893-.358-1.965-.804-3.216-.447-1.251-1.072-2.233-1.876-2.948s-2.01-1.34-3.618-1.876c-1.519-.625-3.35-.938-5.494-.938-8.04 0-12.06 4.467-12.06 13.4v35.51c0 8.933 3.975 13.4 11.926 13.4 8.04 0 12.06-4.467 12.06-13.4v-4.556h-7.906c-1.966 0-3.529-.759-4.69-2.278-1.072-1.608-1.608-3.529-1.608-5.762 0-2.055.58-3.886 1.742-5.494 1.161-1.697 2.68-2.546 4.556-2.546h22.512c1.965 0 3.484.67 4.556 2.01 1.161 1.251 1.742 2.769 1.742 4.556v14.07c0 10.899-2.993 18.894-8.978 23.986-5.986 5.092-13.981 7.638-23.986 7.638-9.916 0-17.8669-2.546-23.8523-7.638-5.9853-5.092-8.978-13.087-8.978-23.986zm70.8063-57.888c0-2.501.536-4.645 1.608-6.432 1.072-1.876 2.635-2.814 4.69-2.814h57.888c2.055 0 3.618.938 4.69 2.814 1.072 1.787 1.608 3.931 1.608 6.432 0 2.68-.58 4.958-1.742 6.834-1.072 1.787-2.591 2.68-4.556 2.68h-18.492v72.762c0 2.055-1.027 3.663-3.082 4.824-2.055 1.072-4.511 1.608-7.37 1.608s-5.315-.536-7.37-1.608c-2.055-1.161-3.082-2.769-3.082-4.824v-72.762h-18.492c-1.965 0-3.529-.893-4.69-2.68-1.072-1.876-1.608-4.154-1.608-6.834zm78.791 82.276v-85.09c0-2.055.893-3.618 2.68-4.69 1.787-1.161 3.931-1.742 6.432-1.742h46.498c2.055 0 3.618.893 4.69 2.68s1.608 3.886 1.608 6.298c0 2.591-.581 4.779-1.742 6.566-1.072 1.787-2.591 2.68-4.556 2.68h-34.706v22.646h20.234c1.965 0 3.484.804 4.556 2.412 1.161 1.608 1.742 3.529 1.742 5.762 0 2.055-.536 3.886-1.608 5.494s-2.635 2.412-4.69 2.412h-20.234v34.572c0 2.055-1.027 3.663-3.082 4.824-2.055 1.072-4.511 1.608-7.37 1.608s-5.315-.536-7.37-1.608c-2.055-1.161-3.082-2.769-3.082-4.824zm64.273-9.648c0-2.501.893-5.003 2.68-7.504 1.876-2.501 4.02-3.752 6.432-3.752 1.34 0 2.814.536 4.422 1.608 1.697.983 3.216 2.099 4.556 3.35 1.429 1.251 3.395 2.412 5.896 3.484 2.501.983 5.137 1.474 7.906 1.474 3.484 0 6.521-.715 9.112-2.144 2.591-1.519 3.886-3.752 3.886-6.7s-1.474-5.539-4.422-7.772c-2.859-2.233-6.387-4.243-10.586-6.03-4.109-1.876-8.263-3.931-12.462-6.164-4.199-2.323-7.772-5.583-10.72-9.782-2.859-4.199-4.288-9.201-4.288-15.008 0-9.291 3.35-16.214 10.05-20.77 6.7-4.645 14.785-6.968 24.254-6.968 2.323 0 4.735.134 7.236.402 2.591.268 5.449.804 8.576 1.608 3.216.715 5.807 1.921 7.772 3.618 2.055 1.697 3.082 3.752 3.082 6.164 0 2.323-.759 4.735-2.278 7.236-1.429 2.501-3.439 3.752-6.03 3.752-1.072 0-3.35-.849-6.834-2.546s-7.325-2.546-11.524-2.546c-4.467 0-7.817.804-10.05 2.412-2.233 1.519-3.35 3.395-3.35 5.628 0 2.055 1.027 3.931 3.082 5.628 2.144 1.697 4.779 3.171 7.906 4.422 3.127 1.161 6.521 2.725 10.184 4.69 3.752 1.876 7.191 3.975 10.318 6.298 3.127 2.233 5.717 5.405 7.772 9.514 2.144 4.109 3.216 8.799 3.216 14.07 0 9.38-3.082 16.705-9.246 21.976-6.164 5.181-14.249 7.772-24.254 7.772-8.665 0-16.214-1.787-22.646-5.36s-9.648-7.593-9.648-12.06zm73.057-16.08c0-2.412.581-4.422 1.742-6.03 1.162-1.697 2.68-2.546 4.556-2.546h34.84c1.698 0 3.172.849 4.422 2.546 1.34 1.697 2.01 3.707 2.01 6.03 0 2.412-.67 4.422-2.01 6.03-1.25 1.608-2.724 2.412-4.422 2.412h-34.84c-1.876 0-3.394-.759-4.556-2.278-1.161-1.608-1.742-3.663-1.742-6.164zm57.622 25.728v-51.054c0-1.876.938-3.395 2.814-4.556 1.966-1.161 4.422-1.742 7.37-1.742 2.591 0 4.78.581 6.566 1.742 1.787 1.161 2.68 2.68 2.68 4.556v4.958c1.43-3.216 3.618-6.03 6.566-8.442 3.038-2.412 6.164-3.618 9.38-3.618h3.886c1.966 0 3.663.893 5.092 2.68 1.519 1.787 2.278 3.886 2.278 6.298 0 2.501-.759 4.645-2.278 6.432-1.429 1.787-3.126 2.68-5.092 2.68h-3.886c-3.841 0-7.236 1.876-10.184 5.628-2.948 3.663-4.422 8.442-4.422 14.338v20.1c0 1.608-1.072 3.082-3.216 4.422-2.054 1.34-4.511 2.01-7.37 2.01-2.858 0-5.27-.625-7.236-1.876-1.965-1.34-2.948-2.859-2.948-4.556zm55.283-72.494c-2.144-1.965-3.216-4.243-3.216-6.834s1.072-4.824 3.216-6.7 4.734-2.814 7.772-2.814c2.948 0 5.494.938 7.638 2.814s3.216 4.109 3.216 6.7-1.072 4.869-3.216 6.834c-2.144 1.876-4.69 2.814-7.638 2.814-3.038 0-5.628-.938-7.772-2.814zm-2.546 72.494v-51.054c0-1.876.938-3.395 2.814-4.556 1.965-1.161 4.466-1.742 7.504-1.742 2.948 0 5.404.581 7.37 1.742 2.054 1.161 3.082 2.68 3.082 4.556v51.054c0 1.608-1.028 3.082-3.082 4.422-2.055 1.34-4.512 2.01-7.37 2.01-2.948 0-5.405-.625-7.37-1.876-1.966-1.34-2.948-2.859-2.948-4.556zm30.436-20.636v-9.38c0-7.683 2.323-14.293 6.968-19.832 4.646-5.539 10.229-8.308 16.75-8.308 3.842 0 7.236.983 10.184 2.948 3.038 1.965 5.316 4.377 6.834 7.236v-39.53c0-1.876.983-3.395 2.948-4.556 2.055-1.161 4.601-1.742 7.638-1.742 2.948 0 5.36.581 7.236 1.742 1.966 1.161 2.948 2.68 2.948 4.556v87.502c0 1.697-.982 3.216-2.948 4.556-1.965 1.251-4.377 1.876-7.236 1.876-2.501 0-4.69-.67-6.566-2.01-1.786-1.34-2.68-2.814-2.68-4.422v-2.948c-1.429 2.948-3.886 5.494-7.37 7.638-3.484 2.055-7.28 3.082-11.39 3.082-6.164 0-11.613-2.859-16.348-8.576-4.645-5.717-6.968-12.328-6.968-19.832zm20.77 0c0 2.68.938 5.092 2.814 7.236 1.966 2.055 4.244 3.082 6.834 3.082 2.591 0 4.958-1.072 7.102-3.216s3.216-3.931 3.216-5.36v-11.122c0-2.948-1.072-5.36-3.216-7.236-2.054-1.876-4.377-2.814-6.968-2.814-2.68 0-5.002 1.027-6.968 3.082-1.876 2.055-2.814 4.377-2.814 6.968zm50.546 0v-9.782c0-7.593 2.992-14.115 8.978-19.564 6.074-5.449 13.355-8.174 21.842-8.174 7.95 0 14.74 2.412 20.368 7.236 5.628 4.735 8.442 10.809 8.442 18.224 0 2.859-.358 5.181-1.072 6.968-.715 1.787-1.787 3.037-3.216 3.752-1.43.715-2.77 1.206-4.02 1.474-1.162.179-2.725.268-4.69.268h-25.862v.804c0 3.305 1.25 5.985 3.752 8.04 2.501 1.965 5.806 2.948 9.916 2.948 3.126 0 6.387-.804 9.782-2.412 3.484-1.697 5.806-2.546 6.968-2.546 2.233 0 4.064 1.072 5.494 3.216 1.429 2.055 2.144 4.02 2.144 5.896 0 2.769-2.412 5.494-7.236 8.174-4.735 2.591-10.631 3.886-17.688 3.886-10.006 0-18.18-2.591-24.522-7.772-6.254-5.271-9.38-12.149-9.38-20.636zm20.77-11.256h16.616c1.876 0 2.814-1.072 2.814-3.216 0-2.501-.983-4.467-2.948-5.896-1.876-1.429-4.154-2.144-6.834-2.144-2.591 0-4.869.715-6.834 2.144-1.876 1.429-2.814 3.395-2.814 5.896z"/></g><rect height="697" rx="88.5" stroke="#000" stroke-width="23" width="697" x="11.5" y="11.5"/></svg>