<svg xmlns="http://www.w3.org/2000/svg" viewBox="0 0 279.39 75.5"><defs><style>.cls-1{fill:#2e3192;}</style></defs><title>optibus-dark-logo</title><g id="Layer_2" data-name="Layer 2"><g id="Layer_1-2" data-name="Layer 1"><path class="cls-1" d="M140,0a7.18,7.18,0,0,0-7.54,7.37A7.16,7.16,0,0,0,140,14.64c4.38,0,7.63-3.06,7.63-7.27A7.26,7.26,0,0,0,140,0Zm0,11.48a3.93,3.93,0,0,1-4.11-4.11A4,4,0,0,1,140,3.17a4.06,4.06,0,0,1,4.2,4.2A4,4,0,0,1,140,11.48ZM23.68,18C9.91,18,0,27.62,0,41s9.91,23,23.68,23,23.67-9.65,23.67-23S37.45,18,23.68,18Zm0,41.87A18.9,18.9,0,1,1,42.58,41,18.92,18.92,0,0,1,23.68,59.85Zm0-36.29A17.39,17.39,0,1,0,41.07,41,17.41,17.41,0,0,0,23.68,23.56Zm0,30.37c-7.28,0-12.54-5.44-12.54-13S16.4,28,23.68,28s12.54,5.44,12.54,13S31,53.93,23.68,53.93ZM75.15,23.75c-9.81,0-16.67,7.08-16.67,17.2s6.86,17.2,16.67,17.2,17-7.23,17-17.2S85,23.75,75.15,23.75Zm0,30.18c-7.1,0-12.36-5.44-12.36-13s5.26-13,12.36-13,12.28,5.44,12.28,13S82.26,53.93,75.15,53.93ZM98.57,41c0,13.33-9.82,23-23.42,23a16.61,16.61,0,0,1-12.1-4.56c.18,2,.26,4.12.26,6.14v10H58.48V53.67c0-1.65,0-3.38-.1-5.19,2.36,6.8,8.86,11.23,16.77,11.23C86,59.71,93.82,51.82,93.82,41S86,22.2,75.15,22.2C64.54,22.2,56.84,30.09,56.84,41V75.5H51.65V44.11c0-9.65,2.19-15.43,6.75-19.73A24,24,0,0,1,75.15,18C88.75,18,98.57,27.62,98.57,41Zm77.61-17.37c-9.82,0-16.68,7.07-16.68,17.2S166.36,58,176.18,58s17-7.24,17-17.2S186,23.58,176.18,23.58Zm0,30.18c-7.11,0-12.37-5.44-12.37-13s5.26-13,12.37-13,12.27,5.44,12.27,13S183.28,53.76,176.18,53.76Zm-63.86-7.37V24.19h14.84V27.8h-9.65V45.69c0,5.08,2.37,6.05,6,6.05a9.75,9.75,0,0,0,3.69-.61v4.72a17.21,17.21,0,0,1-4.83.55C115.5,56.4,112.32,53.22,112.32,46.39Zm-1.64-23.84H98.92v-3.7h6.58V6h5.18Zm16.48-3.7v3.7H112.32V6h5.19v12.9Zm-4.91,39.28a18.78,18.78,0,0,0,4.91-.53v4.75a20.18,20.18,0,0,1-6,.61c-9,0-15.69-4.38-15.69-15.43V27.8H98.92V24.19h11.76V46.74C110.68,54.3,114.57,58.13,122.25,58.13Zm16.93-39.28V62.7h-4.83V18.85Zm6.48,0V62.7h-4.83V18.85Zm53.93,21.93c0,13.33-9.82,23-23.41,23a23.88,23.88,0,0,1-16.75-6.4c-4.56-4.3-6.75-10.08-6.75-19.73V6.23h5.18V40.78c0,10.87,7.7,18.75,18.32,18.75,10.81,0,18.67-7.88,18.67-18.75S187,22,176.18,22c-7.92,0-14.41,4.43-16.78,11.23.06-1.81.1-3.53.1-5.19V6.23h4.84v10c0,2-.09,4.13-.26,6.14,3.24-3.24,7.54-4.56,12.1-4.56C189.77,17.8,199.59,27.45,199.59,40.78Zm44.64-21.93V44.11c0,12.8-8.33,19.82-19.82,19.82s-19.82-7-19.82-19.82V18.85h4.75V44.11c0,9.62,5.77,15.6,15.07,15.6s15.07-6,15.07-15.6V18.85ZM211,44.11V18.85h4.75V44.11c0,6.93,3.68,9.82,8.68,9.82s8.68-2.89,8.68-9.82V18.85h4.75V44.11c0,8.79-5,14-13.43,14S211,52.9,211,44.11Zm68.41,5.09c0,10-7.19,14.73-17.19,14.73a25.79,25.79,0,0,1-11.66-2.72V56.55a30.18,30.18,0,0,0,12,2.81c7.73,0,12.35-3.64,12.35-9.73,0-6.48-5.16-8.53-9.71-10.33l-.19-.07c-6.22-2.42-9.74-4-9.74-8.27,0-4.61,4.29-7.82,10.44-7.82a23.6,23.6,0,0,1,11.15,3.14l.25.15V31a24.19,24.19,0,0,0-11.92-3.69c-3,0-5.27.88-5.27,3.25s2.2,3,7.9,5C274.75,38,279.39,41.22,279.39,49.2ZM249.14,31.57c0-10,8.5-14,16.31-14a26.87,26.87,0,0,1,11.66,2.89V24.7l-.25-.13a25.28,25.28,0,0,0-11.41-3.07c-7,0-11.92,3.92-11.92,9.54,0,5.45,4.31,7.16,10.27,9.53l.24.09c8.46,3.36,9.14,6,9.14,9.06,0,7.42-8.27,8-10.8,8A25.77,25.77,0,0,1,251.17,55l-.63-.3V50.07a28.51,28.51,0,0,0,12.63,3.6c3,0,5.26-1,5.26-3.42,0-3.33-4.3-4.82-7.54-6C252.12,41.22,249.14,37.45,249.14,31.57ZM142.43,7.37A2.3,2.3,0,0,1,140,9.75a2.23,2.23,0,0,1-2.38-2.38A2.3,2.3,0,0,1,140,4.9,2.39,2.39,0,0,1,142.43,7.37Z"/></g></g></svg>